<svg width="24" height="24" viewBox="0 0 24 24" fill="none" xmlns="http://www.w3.org/2000/svg">
<mask id="mask0_308_7583" style="mask-type:alpha" maskUnits="userSpaceOnUse" x="2" y="2" width="20" height="20">
<g clip-path="url(#clip0_308_7583)">
<path opacity="0.65" d="M18.3228 20.4596L16.2016 13.9312L12 16.9838L17.5534 21.0186C17.9453 21.3033 18.4725 20.9203 18.3228 20.4596Z" fill="black"/>
<path d="M11.5244 2.46366C11.6741 2.003 12.3258 2.003 12.4755 2.46366L14.4845 8.64661C14.5514 8.85262 14.7434 8.9921 14.96 8.9921H21.4611C21.9455 8.9921 22.1469 9.61191 21.755 9.89661L16.2016 13.9314L12 16.9841L6.44653 21.0189C6.05468 21.3036 5.52744 20.9205 5.67711 20.4599L7.68608 14.2769C7.75301 14.0709 7.67968 13.8452 7.50444 13.7179L2.24491 9.89661C1.85305 9.61191 2.05444 8.9921 2.5388 8.9921H9.03994C9.25655 8.9921 9.44853 8.85262 9.51547 8.64661L11.5244 2.46366Z" fill="black"/>
</g>
</mask>
<g mask="url(#mask0_308_7583)">
<path d="M0 0H24V24H0V0Z" fill="white"/>
</g>
<defs>
<clipPath id="clip0_308_7583">
<rect width="19.9242" height="18.9985" fill="white" transform="translate(2.03784 2.11816)"/>
</clipPath>
</defs>
</svg>
